OHamburgC-Italic.ufo
<glyph name="parenleft" format="2">
  <advance width="275"/>
  <unicode hex="0028"/>
  <outline>
    <contour>
      <point x="173" y="281" type="curve" smooth="yes"/>
      <point x="217" y="437"/>
      <point x="319" y="607"/>
      <point x="407" y="692" type="curve"/>
      <point x="395" y="720" type="line"/>
      <point x="278" y="634"/>
      <point x="159" y="452"/>
      <point x="111" y="281" type="curve" smooth="yes"/>
      <point x="63" y="110"/>
      <point x="80" y="-72"/>
      <point x="149" y="-158" type="curve"/>
      <point x="175" y="-130" type="line"/>
      <point x="135" y="-45"/>
      <point x="129" y="125"/>
    </contour>
  </outline>
</glyph>
<glyph name="parenright" format="2">
  <advance width="286"/>
  <unicode hex="0029"/>
  <outline>
    <contour>
      <point x="155" y="281" type="curve" smooth="yes"/>
      <point x="111" y="125"/>
      <point x="9" y="-45"/>
      <point x="-79" y="-130" type="curve"/>
      <point x="-67" y="-158" type="line"/>
      <point x="50" y="-72"/>
      <point x="169" y="110"/>
      <point x="217" y="281" type="curve" smooth="yes"/>
      <point x="265" y="452"/>
      <point x="248" y="634"/>
      <point x="179" y="720" type="curve"/>
      <point x="153" y="692" type="line"/>
      <point x="193" y="607"/>
      <point x="199" y="437"/>
    </contour>
  </outline>
</glyph>
<glyph name="zero" format="2">
  <advance width="492"/>
  <unicode hex="0030"/>
  <anchor x="186" y="1" name="bottom"/>
  <anchor x="244" y="216" name="center"/>
  <anchor x="358" y="11" name="ogonek"/>
  <anchor x="301" y="431" name="top"/>
  <anchor x="492" y="431" name="topright"/>
  <outline>
    <contour>
      <point x="212" y="-8" type="curve" smooth="yes"/>
      <point x="327" y="-8"/>
      <point x="427" y="82"/>
      <point x="448" y="210" type="curve" smooth="yes"/>
      <point x="471" y="348"/>
      <point x="408" y="445"/>
      <point x="290" y="445" type="curve" smooth="yes"/>
      <point x="175" y="445"/>
      <point x="75" y="355"/>
      <point x="54" y="228" type="curve" smooth="yes"/>
      <point x="31" y="90"/>
      <point x="94" y="-8"/>
    </contour>
    <contour>
      <point x="226" y="21" type="curve" smooth="yes"/>
      <point x="147" y="21"/>
      <point x="108" y="90"/>
      <point x="114" y="187" type="curve" smooth="yes"/>
      <point x="122" y="323"/>
      <point x="199" y="416"/>
      <point x="276" y="416" type="curve" smooth="yes"/>
      <point x="353" y="416"/>
      <point x="392" y="347"/>
      <point x="386" y="250" type="curve" smooth="yes"/>
      <point x="378" y="114"/>
      <point x="301" y="21"/>
    </contour>
  </outline>
</glyph>
<glyph name="one" format="2">
  <advance width="527"/>
  <unicode hex="0031"/>
  <outline>
    <contour>
      <point x="103" y="0" type="line"/>
      <point x="343" y="0" type="line"/>
      <point x="345" y="17" type="line"/>
      <point x="314" y="24"/>
      <point x="279" y="34"/>
      <point x="273" y="39" type="curve" smooth="yes"/>
      <point x="259" y="53"/>
      <point x="260" y="73"/>
      <point x="265" y="93" type="curve" smooth="yes"/>
      <point x="274" y="127"/>
      <point x="300" y="204"/>
      <point x="320" y="279" type="curve" smooth="yes"/>
      <point x="334" y="331"/>
      <point x="367" y="402"/>
      <point x="384" y="443" type="curve"/>
      <point x="199" y="396" type="line"/>
      <point x="194" y="377" type="line"/>
      <point x="250" y="377"/>
      <point x="287" y="353"/>
      <point x="279" y="322" type="curve" smooth="yes"/>
      <point x="267" y="277"/>
      <point x="236" y="166"/>
      <point x="208" y="74" type="curve" smooth="yes"/>
      <point x="203" y="59"/>
      <point x="189" y="43"/>
      <point x="175" y="34" type="curve" smooth="yes"/>
      <point x="166" y="28"/>
      <point x="139" y="26"/>
      <point x="107" y="20" type="curve"/>
    </contour>
  </outline>
</glyph>
<glyph name="two" format="2">
  <advance width="491"/>
  <unicode hex="0032"/>
  <outline>
    <contour>
      <point x="-22" y="0" type="line"/>
      <point x="339" y="0" type="line"/>
      <point x="413" y="79" type="line"/>
      <point x="305" y="61"/>
      <point x="160" y="48"/>
      <point x="63" y="56" type="curve"/>
      <point x="58" y="41" type="line"/>
      <point x="243" y="153"/>
      <point x="377" y="279"/>
      <point x="395" y="326" type="curve" smooth="yes"/>
      <point x="422" y="395"/>
      <point x="375" y="446"/>
      <point x="303" y="446" type="curve" smooth="yes"/>
      <point x="240" y="446"/>
      <point x="163" y="408"/>
      <point x="116" y="355" type="curve"/>
      <point x="138" y="335" type="line"/>
      <point x="177" y="370"/>
      <point x="227" y="394"/>
      <point x="260" y="394" type="curve" smooth="yes"/>
      <point x="307" y="394"/>
      <point x="327" y="363"/>
      <point x="321" y="320" type="curve" smooth="yes"/>
      <point x="314" y="273"/>
      <point x="277" y="221"/>
      <point x="136" y="126" type="curve" smooth="yes"/>
      <point x="-24" y="18" type="line"/>
    </contour>
  </outline>
</glyph>
<glyph name="three" format="2">
  <advance width="395"/>
  <unicode hex="0033"/>
  <outline>
    <contour>
      <point x="-64" y="-228" type="line"/>
      <point x="150" y="-166"/>
      <point x="288" y="-45"/>
      <point x="295" y="64" type="curve" smooth="yes"/>
      <point x="299" y="130"/>
      <point x="273" y="160"/>
      <point x="224" y="182" type="curve" smooth="yes"/>
      <point x="194" y="195"/>
      <point x="178" y="179"/>
      <point x="166" y="178" type="curve"/>
      <point x="82" y="156" type="line"/>
      <point x="90" y="126" type="line"/>
      <point x="123" y="140"/>
      <point x="135" y="140"/>
      <point x="146" y="140" type="curve" smooth="yes"/>
      <point x="185" y="140"/>
      <point x="235" y="106"/>
      <point x="229" y="43" type="curve" smooth="yes"/>
      <point x="221" y="-41"/>
      <point x="105" y="-141"/>
      <point x="-63" y="-202" type="curve"/>
    </contour>
    <contour>
      <point x="90" y="126" type="line"/>
      <point x="104" y="133"/>
      <point x="131" y="162"/>
      <point x="155" y="167" type="curve" smooth="yes"/>
      <point x="275" y="190"/>
      <point x="355" y="300"/>
      <point x="358" y="354" type="curve" smooth="yes"/>
      <point x="361" y="408"/>
      <point x="320" y="446"/>
      <point x="280" y="446" type="curve" smooth="yes"/>
      <point x="230" y="446"/>
      <point x="159" y="411"/>
      <point x="109" y="361" type="curve"/>
      <point x="126" y="339" type="line"/>
      <point x="162" y="371"/>
      <point x="202" y="394"/>
      <point x="228" y="394" type="curve" smooth="yes"/>
      <point x="256" y="394"/>
      <point x="283" y="371"/>
      <point x="283" y="334" type="curve" smooth="yes"/>
      <point x="283" y="271"/>
      <point x="199" y="184"/>
      <point x="82" y="156" type="curve"/>
    </contour>
  </outline>
</glyph>
<glyph name="four" format="2">
  <advance width="503"/>
  <unicode hex="0034"/>
  <outline>
    <contour>
      <point x="218" y="-205" type="curve"/>
      <point x="278" y="-205" type="line"/>
      <point x="334" y="8"/>
      <point x="361" y="222"/>
      <point x="422" y="435" type="curve"/>
      <point x="387" y="435" type="line"/>
      <point x="-15" y="53" type="line"/>
      <point x="-28" y="5" type="line"/>
      <point x="120" y="9"/>
      <point x="266" y="3"/>
      <point x="412" y="-1" type="curve"/>
      <point x="432" y="65" type="line"/>
      <point x="295" y="62"/>
      <point x="155" y="59"/>
      <point x="18" y="67" type="curve"/>
      <point x="13" y="38" type="line"/>
      <point x="368" y="374" type="line"/>
      <point x="345" y="352" type="line"/>
      <point x="286" y="166"/>
      <point x="271" y="-5"/>
    </contour>
  </outline>
</glyph>
<glyph name="five" format="2">
  <advance width="516"/>
  <unicode hex="0035"/>
  <outline>
    <contour>
      <point x="-31" y="-233" type="line"/>
      <point x="147" y="-186"/>
      <point x="299" y="-60"/>
      <point x="312" y="52" type="curve" smooth="yes"/>
      <point x="322" y="129"/>
      <point x="258" y="237"/>
      <point x="170" y="302" type="curve"/>
      <point x="166" y="269" type="line"/>
      <point x="255" y="406" type="line"/>
      <point x="209" y="379" type="line"/>
      <point x="273" y="386"/>
      <point x="381" y="383"/>
      <point x="451" y="373" type="curve"/>
      <point x="499" y="435" type="line"/>
      <point x="235" y="435" type="line"/>
      <point x="119" y="252" type="line"/>
      <point x="204" y="192"/>
      <point x="264" y="92"/>
      <point x="254" y="26" type="curve" smooth="yes"/>
      <point x="242" y="-59"/>
      <point x="112" y="-159"/>
      <point x="-39" y="-205" type="curve"/>
    </contour>
  </outline>
</glyph>
<glyph name="six" format="2">
  <advance width="501"/>
  <unicode hex="0036"/>
  <outline>
    <contour>
      <point x="210" y="-16" type="curve" smooth="yes"/>
      <point x="319" y="-16"/>
      <point x="428" y="82"/>
      <point x="427" y="197" type="curve" smooth="yes"/>
      <point x="426" y="303"/>
      <point x="367" y="366"/>
      <point x="266" y="358" type="curve" smooth="yes"/>
      <point x="225" y="355"/>
      <point x="189" y="341"/>
      <point x="166" y="319" type="curve"/>
      <point x="176" y="303" type="line"/>
      <point x="193" y="318"/>
      <point x="214" y="333"/>
      <point x="243" y="333" type="curve" smooth="yes"/>
      <point x="314" y="333"/>
      <point x="360" y="271"/>
      <point x="356" y="177" type="curve" smooth="yes"/>
      <point x="352" y="88"/>
      <point x="307" y="24"/>
      <point x="239" y="24" type="curve" smooth="yes"/>
      <point x="160" y="24"/>
      <point x="116" y="126"/>
      <point x="136" y="267" type="curve" smooth="yes"/>
      <point x="159" y="429"/>
      <point x="358" y="598"/>
      <point x="592" y="671" type="curve"/>
      <point x="580" y="705" type="line"/>
      <point x="315" y="621"/>
      <point x="90" y="435"/>
      <point x="57" y="240" type="curve" smooth="yes"/>
      <point x="32" y="94"/>
      <point x="93" y="-16"/>
    </contour>
  </outline>
</glyph>
<glyph name="eight" format="2">
  <advance width="461"/>
  <unicode hex="0038"/>
  <outline>
    <contour>
      <point x="191" y="-16" type="line"/>
      <point x="296" y="-16"/>
      <point x="379" y="58"/>
      <point x="385" y="155" type="curve" smooth="yes"/>
      <point x="395" y="323"/>
      <point x="201" y="383"/>
      <point x="203" y="515" type="curve" smooth="yes"/>
      <point x="204" y="573"/>
      <point x="256" y="614"/>
      <point x="325" y="614" type="curve"/>
      <point x="334" y="647" type="line"/>
      <point x="242" y="647"/>
      <point x="171" y="586"/>
      <point x="163" y="499" type="curve" smooth="yes"/>
      <point x="146" y="326"/>
      <point x="351" y="253"/>
      <point x="346" y="139" type="curve" smooth="yes"/>
      <point x="343" y="73"/>
      <point x="279" y="17"/>
      <point x="200" y="17" type="curve"/>
    </contour>
    <contour>
      <point x="191" y="-16" type="curve"/>
      <point x="200" y="17" type="line"/>
      <point x="135" y="17"/>
      <point x="97" y="77"/>
      <point x="103" y="148" type="curve" smooth="yes"/>
      <point x="107" y="203"/>
      <point x="174" y="268"/>
      <point x="261" y="308" type="curve"/>
      <point x="236" y="323" type="line"/>
      <point x="133" y="277"/>
      <point x="52" y="202"/>
      <point x="45" y="141" type="curve" smooth="yes"/>
      <point x="35" y="55"/>
      <point x="94" y="-16"/>
    </contour>
    <contour>
      <point x="334" y="647" type="curve"/>
      <point x="325" y="614" type="line"/>
      <point x="379" y="614"/>
      <point x="413" y="569"/>
      <point x="406" y="505" type="curve" smooth="yes"/>
      <point x="399" y="444"/>
      <point x="337" y="375"/>
      <point x="260" y="335" type="curve"/>
      <point x="284" y="320" type="line"/>
      <point x="382" y="368"/>
      <point x="458" y="446"/>
      <point x="464" y="512" type="curve" smooth="yes"/>
      <point x="471" y="591"/>
      <point x="417" y="647"/>
    </contour>
  </outline>
</glyph>
<glyph name="nine" format="2">
  <advance width="531"/>
  <unicode hex="0039"/>
  <outline>
    <contour>
      <point x="325" y="470" type="curve" smooth="yes"/>
      <point x="216" y="470"/>
      <point x="107" y="372"/>
      <point x="108" y="257" type="curve" smooth="yes"/>
      <point x="109" y="151"/>
      <point x="168" y="88"/>
      <point x="269" y="96" type="curve" smooth="yes"/>
      <point x="310" y="99"/>
      <point x="346" y="113"/>
      <point x="369" y="135" type="curve"/>
      <point x="359" y="151" type="line"/>
      <point x="342" y="136"/>
      <point x="321" y="121"/>
      <point x="292" y="121" type="curve" smooth="yes"/>
      <point x="221" y="121"/>
      <point x="175" y="183"/>
      <point x="179" y="277" type="curve" smooth="yes"/>
      <point x="183" y="366"/>
      <point x="228" y="430"/>
      <point x="296" y="430" type="curve" smooth="yes"/>
      <point x="375" y="430"/>
      <point x="419" y="328"/>
      <point x="399" y="187" type="curve" smooth="yes"/>
      <point x="376" y="25"/>
      <point x="177" y="-144"/>
      <point x="-57" y="-217" type="curve"/>
      <point x="-45" y="-251" type="line"/>
      <point x="220" y="-167"/>
      <point x="445" y="19"/>
      <point x="478" y="214" type="curve" smooth="yes"/>
      <point x="503" y="360"/>
      <point x="442" y="470"/>
    </contour>
  </outline>
</glyph>
<glyph name="at" format="2">
  <advance width="784"/>
  <unicode hex="0040"/>
  <outline>
    <contour>
      <point x="371" y="-162" type="curve" smooth="yes"/>
      <point x="467" y="-162"/>
      <point x="582" y="-116"/>
      <point x="649" y="-51" type="curve"/>
      <point x="635" y="-30" type="line"/>
      <point x="574" y="-90"/>
      <point x="467" y="-132"/>
      <point x="375" y="-132" type="curve" smooth="yes"/>
      <point x="185" y="-132"/>
      <point x="70" y="3"/>
      <point x="97" y="194" type="curve" smooth="yes"/>
      <point x="125" y="393"/>
      <point x="279" y="534"/>
      <point x="469" y="534" type="curve" smooth="yes"/>
      <point x="635" y="534"/>
      <point x="735" y="422"/>
      <point x="713" y="264" type="curve" smooth="yes"/>
      <point x="695" y="139"/>
      <point x="628" y="51"/>
      <point x="549" y="51" type="curve" smooth="yes"/>
      <point x="511" y="51"/>
      <point x="489" y="66"/>
      <point x="496" y="86" type="curve" smooth="yes"/>
      <point x="588" y="349" type="line"/>
      <point x="577" y="372"/>
      <point x="525" y="388"/>
      <point x="463" y="388" type="curve" smooth="yes"/>
      <point x="335" y="388"/>
      <point x="231" y="289"/>
      <point x="212" y="149" type="curve" smooth="yes"/>
      <point x="201" y="70"/>
      <point x="250" y="14"/>
      <point x="331" y="14" type="curve" smooth="yes"/>
      <point x="360" y="14"/>
      <point x="403" y="35"/>
      <point x="435" y="65" type="curve"/>
      <point x="438" y="38"/>
      <point x="476" y="19"/>
      <point x="528" y="19" type="curve" smooth="yes"/>
      <point x="634" y="19"/>
      <point x="723" y="121"/>
      <point x="743" y="264" type="curve" smooth="yes"/>
      <point x="768" y="440"/>
      <point x="656" y="564"/>
      <point x="473" y="564" type="curve" smooth="yes"/>
      <point x="266" y="564"/>
      <point x="98" y="411"/>
      <point x="67" y="194" type="curve" smooth="yes"/>
      <point x="38" y="-15"/>
      <point x="164" y="-162"/>
    </contour>
    <contour>
      <point x="285" y="167" type="curve" smooth="yes"/>
      <point x="300" y="275"/>
      <point x="364" y="352"/>
      <point x="438" y="352" type="curve" smooth="yes"/>
      <point x="468" y="352"/>
      <point x="500" y="343"/>
      <point x="515" y="330" type="curve"/>
      <point x="433" y="96" type="line"/>
      <point x="401" y="73"/>
      <point x="369" y="56"/>
      <point x="355" y="56" type="curve" smooth="yes"/>
      <point x="305" y="56"/>
      <point x="276" y="102"/>
    </contour>
  </outline>
</glyph>
<glyph name="C" format="2">
  <advance width="693"/>
  <unicode hex="0043"/>
  <anchor x="274" y="0" name="bottom"/>
  <anchor x="484" y="616" name="top"/>
  <outline>
    <contour>
      <point x="332" y="-8" type="curve" smooth="yes"/>
      <point x="406" y="-8"/>
      <point x="501" y="11"/>
      <point x="562" y="38" type="curve"/>
      <point x="571" y="53"/>
      <point x="600" y="121"/>
      <point x="633" y="201" type="curve"/>
      <point x="601" y="200" type="line"/>
      <point x="555" y="100"/>
      <point x="452" y="30"/>
      <point x="353" y="30" type="curve" smooth="yes"/>
      <point x="231" y="30"/>
      <point x="151" y="132"/>
      <point x="160" y="275" type="curve" smooth="yes"/>
      <point x="172" y="471"/>
      <point x="282" y="610"/>
      <point x="426" y="610" type="curve" smooth="yes"/>
      <point x="532" y="610"/>
      <point x="601" y="531"/>
      <point x="594" y="420" type="curve"/>
      <point x="621" y="420" type="line"/>
      <point x="644" y="503"/>
      <point x="662" y="566"/>
      <point x="664" y="571" type="curve"/>
      <point x="606" y="616"/>
      <point x="516" y="648"/>
      <point x="446" y="648" type="curve" smooth="yes"/>
      <point x="264" y="648"/>
      <point x="114" y="518"/>
      <point x="83" y="334" type="curve" smooth="yes"/>
      <point x="49" y="134"/>
      <point x="152" y="-8"/>
    </contour>
  </outline>
</glyph>
<glyph name="D" format="2">
  <advance width="729"/>
  <unicode hex="0044"/>
  <anchor x="298" y="0" name="bottom"/>
  <anchor x="221" y="308" name="center"/>
  <anchor x="508" y="616" name="top"/>
  <outline>
    <contour>
      <point x="-11" y="23" type="curve"/>
      <point x="-18" y="0" type="line"/>
      <point x="5" y="0"/>
      <point x="67" y="0"/>
      <point x="109" y="0" type="curve" smooth="yes"/>
      <point x="109" y="0"/>
      <point x="190" y="1"/>
      <point x="327" y="-3" type="curve"/>
      <point x="342" y="36" type="line"/>
      <point x="251" y="36"/>
      <point x="181" y="43"/>
      <point x="173" y="53" type="curve" smooth="yes"/>
      <point x="167" y="60"/>
      <point x="166" y="75"/>
      <point x="170" y="89" type="curve" smooth="yes"/>
      <point x="197" y="187"/>
      <point x="273" y="478"/>
      <point x="300" y="576" type="curve"/>
      <point x="378" y="578"/>
      <point x="421" y="580"/>
      <point x="402" y="580" type="curve"/>
      <point x="420" y="619" type="line"/>
      <point x="347" y="617"/>
      <point x="276" y="616"/>
      <point x="276" y="616" type="curve"/>
      <point x="230" y="616"/>
      <point x="177" y="616"/>
      <point x="146" y="616" type="curve"/>
      <point x="139" y="592" type="line"/>
      <point x="175" y="585"/>
      <point x="204" y="578"/>
      <point x="208" y="574" type="curve" smooth="yes"/>
      <point x="215" y="569"/>
      <point x="216" y="549"/>
      <point x="210" y="527" type="curve" smooth="yes"/>
      <point x="152" y="307"/>
      <point x="130" y="217"/>
      <point x="156" y="312" type="curve" smooth="yes"/>
      <point x="165" y="347"/>
      <point x="139" y="255"/>
      <point x="95" y="89" type="curve" smooth="yes"/>
      <point x="89" y="69"/>
      <point x="78" y="49"/>
      <point x="68" y="41" type="curve" smooth="yes"/>
      <point x="60" y="36"/>
      <point x="27" y="28"/>
    </contour>
    <contour>
      <point x="342" y="36" type="curve"/>
      <point x="327" y="-3" type="line"/>
      <point x="512" y="-2"/>
      <point x="665" y="127"/>
      <point x="696" y="308" type="curve" smooth="yes"/>
      <point x="727" y="490"/>
      <point x="613" y="619"/>
      <point x="420" y="619" type="curve"/>
      <point x="402" y="580" type="line"/>
      <point x="536" y="580"/>
      <point x="624" y="491"/>
      <point x="616" y="366" type="curve" smooth="yes"/>
      <point x="603" y="173"/>
      <point x="490" y="36"/>
    </contour>
  </outline>
</glyph>
<glyph name="G" format="2">
  <advance width="715"/>
  <unicode hex="0047"/>
  <anchor x="288" y="0" name="bottom"/>
  <anchor x="498" y="616" name="top"/>
  <outline>
    <contour>
      <point x="332" y="-8" type="curve" smooth="yes"/>
      <point x="418" y="-8"/>
      <point x="521" y="13"/>
      <point x="581" y="43" type="curve"/>
      <point x="580" y="56" type="line"/>
      <point x="563" y="57"/>
      <point x="554" y="67"/>
      <point x="558" y="79" type="curve"/>
      <point x="590" y="200" type="line"/>
      <point x="597" y="226"/>
      <point x="618" y="247"/>
      <point x="640" y="252" type="curve"/>
      <point x="678" y="258" type="line"/>
      <point x="685" y="287" type="line"/>
      <point x="443" y="287" type="line"/>
      <point x="434" y="253" type="line"/>
      <point x="489" y="244"/>
      <point x="522" y="217"/>
      <point x="514" y="188" type="curve"/>
      <point x="485" y="76" type="line"/>
      <point x="477" y="49"/>
      <point x="422" y="30"/>
      <point x="353" y="30" type="curve" smooth="yes"/>
      <point x="231" y="30"/>
      <point x="151" y="132"/>
      <point x="160" y="275" type="curve" smooth="yes"/>
      <point x="172" y="471"/>
      <point x="282" y="610"/>
      <point x="426" y="610" type="curve" smooth="yes"/>
      <point x="533" y="610"/>
      <point x="602" y="531"/>
      <point x="593" y="420" type="curve"/>
      <point x="621" y="420" type="line"/>
      <point x="642" y="498"/>
      <point x="660" y="560"/>
      <point x="664" y="571" type="curve"/>
      <point x="605" y="616"/>
      <point x="515" y="648"/>
      <point x="446" y="648" type="curve" smooth="yes"/>
      <point x="264" y="648"/>
      <point x="114" y="518"/>
      <point x="83" y="334" type="curve" smooth="yes"/>
      <point x="49" y="134"/>
      <point x="152" y="-8"/>
    </contour>
  </outline>
</glyph>
<glyph name="I" format="2">
  <advance width="308"/>
  <unicode hex="0049"/>
  <anchor x="91" y="0" name="bottom"/>
  <anchor x="221" y="10" name="ogonek"/>
  <anchor x="276" y="616" name="top"/>
  <anchor x="162" y="616" name="topleft"/>
  <outline>
    <contour>
      <point x="-25" y="24" type="curve"/>
      <point x="-31" y="0" type="line"/>
      <point x="238" y="0" type="line"/>
      <point x="244" y="24" type="line"/>
      <point x="202" y="28"/>
      <point x="175" y="35"/>
      <point x="167" y="42" type="curve" smooth="yes"/>
      <point x="158" y="51"/>
      <point x="158" y="68"/>
      <point x="163" y="90" type="curve"/>
      <point x="279" y="525" type="line"/>
      <point x="285" y="547"/>
      <point x="298" y="565"/>
      <point x="320" y="575" type="curve" smooth="yes"/>
      <point x="334" y="581"/>
      <point x="360" y="587"/>
      <point x="396" y="591" type="curve"/>
      <point x="403" y="616" type="line"/>
      <point x="134" y="616" type="line"/>
      <point x="128" y="593" type="line"/>
      <point x="170" y="589"/>
      <point x="198" y="582"/>
      <point x="207" y="573" type="curve" smooth="yes"/>
      <point x="215" y="564"/>
      <point x="216" y="547"/>
      <point x="211" y="525" type="curve"/>
      <point x="96" y="93" type="line"/>
      <point x="90" y="68"/>
      <point x="78" y="50"/>
      <point x="65" y="43" type="curve" smooth="yes"/>
      <point x="52" y="34"/>
      <point x="20" y="27"/>
    </contour>
  </outline>
</glyph>
<glyph name="O" format="2">
  <advance width="733"/>
  <unicode hex="004F"/>
  <anchor x="237" y="0" name="bottom"/>
  <anchor x="302" y="308" name="center"/>
  <anchor x="497" y="10" name="ogonek"/>
  <anchor x="467" y="617" name="top"/>
  <anchor x="56" y="616" name="topleft"/>
  <anchor x="758" y="616" name="topright"/>
  <outline>
    <contour>
      <point x="337" y="-8" type="curve" smooth="yes"/>
      <point x="520" y="-8"/>
      <point x="670" y="123"/>
      <point x="700" y="308" type="curve" smooth="yes"/>
      <point x="734" y="507"/>
      <point x="631" y="648"/>
      <point x="451" y="648" type="curve" smooth="yes"/>
      <point x="269" y="648"/>
      <point x="119" y="518"/>
      <point x="88" y="334" type="curve" smooth="yes"/>
      <point x="55" y="134"/>
      <point x="158" y="-8"/>
    </contour>
    <contour>
      <point x="358" y="30" type="curve" smooth="yes"/>
      <point x="243" y="30"/>
      <point x="157" y="139"/>
      <point x="165" y="275" type="curve" smooth="yes"/>
      <point x="176" y="462"/>
      <point x="294" y="610"/>
      <point x="431" y="610" type="curve" smooth="yes"/>
      <point x="545" y="610"/>
      <point x="629" y="502"/>
      <point x="620" y="366" type="curve" smooth="yes"/>
      <point x="610" y="179"/>
      <point x="494" y="30"/>
    </contour>
  </outline>
</glyph>
<glyph name="Q" format="2">
  <advance width="733"/>
  <unicode hex="0051"/>
  <anchor x="246" y="0" name="bottom"/>
  <anchor x="311" y="308" name="center"/>
  <anchor x="506" y="10" name="ogonek"/>
  <anchor x="414" y="617" name="top"/>
  <anchor x="65" y="616" name="topleft"/>
  <anchor x="767" y="616" name="topright"/>
  <outline>
    <contour>
      <point x="80" y="-92" type="curve"/>
      <point x="-23" y="-141" type="line"/>
      <point x="138" y="-121"/>
      <point x="163" y="-230"/>
      <point x="350" y="-230" type="curve" smooth="yes"/>
      <point x="468" y="-230"/>
      <point x="606" y="-193"/>
      <point x="668" y="-141" type="curve"/>
      <point x="654" y="-115" type="line"/>
      <point x="600" y="-152"/>
      <point x="516" y="-183"/>
      <point x="450" y="-183" type="curve" smooth="yes"/>
      <point x="288" y="-183"/>
      <point x="267" y="-66"/>
    </contour>
    <contour>
      <point x="-27" y="-143" type="line"/>
      <point x="505" y="32" type="line"/>
      <point x="493" y="65" type="line"/>
      <point x="-34" y="-114" type="line"/>
    </contour>
    <contour>
      <point x="346" y="-8" type="curve" smooth="yes"/>
      <point x="529" y="-8"/>
      <point x="679" y="123"/>
      <point x="709" y="308" type="curve" smooth="yes"/>
      <point x="743" y="507"/>
      <point x="640" y="648"/>
      <point x="460" y="648" type="curve" smooth="yes"/>
      <point x="278" y="648"/>
      <point x="128" y="518"/>
      <point x="97" y="334" type="curve" smooth="yes"/>
      <point x="64" y="134"/>
      <point x="167" y="-8"/>
    </contour>
    <contour>
      <point x="367" y="30" type="curve" smooth="yes"/>
      <point x="252" y="30"/>
      <point x="166" y="139"/>
      <point x="174" y="275" type="curve" smooth="yes"/>
      <point x="185" y="462"/>
      <point x="303" y="610"/>
      <point x="440" y="610" type="curve" smooth="yes"/>
      <point x="554" y="610"/>
      <point x="638" y="502"/>
      <point x="629" y="366" type="curve" smooth="yes"/>
      <point x="619" y="179"/>
      <point x="503" y="30"/>
    </contour>
  </outline>
</glyph>
<glyph name="S" format="2">
  <advance width="473"/>
  <unicode hex="0053"/>
  <anchor x="186" y="0" name="bottom"/>
  <anchor x="396" y="616" name="top"/>
  <outline>
    <contour>
      <point x="196" y="-9" type="curve" smooth="yes"/>
      <point x="296" y="-9"/>
      <point x="383" y="56"/>
      <point x="398" y="150" type="curve" smooth="yes"/>
      <point x="412" y="239"/>
      <point x="381" y="262"/>
      <point x="301" y="347" type="curve" smooth="yes"/>
      <point x="253" y="397"/>
      <point x="196" y="446"/>
      <point x="210" y="515" type="curve" smooth="yes"/>
      <point x="219" y="560"/>
      <point x="265" y="590"/>
      <point x="326" y="590" type="curve" smooth="yes"/>
      <point x="409" y="590"/>
      <point x="453" y="533"/>
      <point x="432" y="453" type="curve"/>
      <point x="461" y="453" type="line"/>
      <point x="494" y="575" type="line"/>
      <point x="484" y="577"/>
      <point x="470" y="583"/>
      <point x="453" y="590" type="curve" smooth="yes"/>
      <point x="419" y="605"/>
      <point x="374" y="624"/>
      <point x="326" y="624" type="curve" smooth="yes"/>
      <point x="234" y="624"/>
      <point x="161" y="568"/>
      <point x="148" y="484" type="curve" smooth="yes"/>
      <point x="134" y="389"/>
      <point x="167" y="351"/>
      <point x="233" y="287" type="curve" smooth="yes"/>
      <point x="284" y="238"/>
      <point x="352" y="182"/>
      <point x="334" y="113" type="curve" smooth="yes"/>
      <point x="320" y="60"/>
      <point x="270" y="24"/>
      <point x="196" y="25" type="curve" smooth="yes"/>
      <point x="110" y="27"/>
      <point x="66" y="99"/>
      <point x="91" y="197" type="curve"/>
      <point x="54" y="197" type="line"/>
      <point x="50" y="158"/>
      <point x="36" y="100"/>
      <point x="22" y="57" type="curve"/>
      <point x="26" y="56"/>
      <point x="33" y="51"/>
      <point x="42" y="45" type="curve" smooth="yes"/>
      <point x="70" y="26"/>
      <point x="121" y="-9"/>
    </contour>
  </outline>
</glyph>
<glyph name="X" format="2">
  <advance width="646"/>
  <unicode hex="0058"/>
  <anchor x="261" y="0" name="bottom"/>
  <anchor x="471" y="616" name="top"/>
  <outline>
    <contour>
      <point x="328" y="0" type="line"/>
      <point x="572" y="0" type="line"/>
      <point x="579" y="28" type="line"/>
      <point x="540" y="33"/>
      <point x="514" y="26"/>
      <point x="475" y="114" type="curve" smooth="yes"/>
      <point x="371" y="351"/>
      <point x="375" y="351"/>
      <point x="298" y="512" type="curve" smooth="yes"/>
      <point x="285" y="541"/>
      <point x="281" y="555"/>
      <point x="285" y="566" type="curve" smooth="yes"/>
      <point x="288" y="581"/>
      <point x="304" y="586"/>
      <point x="357" y="591" type="curve"/>
      <point x="364" y="616" type="line"/>
      <point x="131" y="616" type="line"/>
      <point x="124" y="588" type="line"/>
      <point x="169" y="588"/>
      <point x="184" y="587"/>
      <point x="224" y="494" type="curve" smooth="yes"/>
      <point x="315" y="286"/>
      <point x="321" y="286"/>
      <point x="398" y="105" type="curve" smooth="yes"/>
      <point x="411" y="76"/>
      <point x="416" y="58"/>
      <point x="414" y="47" type="curve" smooth="yes"/>
      <point x="409" y="30"/>
      <point x="405" y="29"/>
      <point x="335" y="25" type="curve"/>
    </contour>
    <contour>
      <point x="-12" y="0" type="line"/>
      <point x="201" y="0" type="line"/>
      <point x="208" y="25" type="line"/>
      <point x="171" y="28"/>
      <point x="140" y="32"/>
      <point x="164" y="54" type="curve" smooth="yes"/>
      <point x="174" y="63"/>
      <point x="180" y="77"/>
      <point x="209" y="112" type="curve" smooth="yes"/>
      <point x="371" y="308" type="line"/>
      <point x="344" y="333" type="line"/>
      <point x="140" y="101" type="line" smooth="yes"/>
      <point x="53" y="3"/>
      <point x="27" y="30"/>
      <point x="-5" y="28" type="curve"/>
    </contour>
    <contour>
      <point x="384" y="315" type="line"/>
      <point x="544" y="504" type="line" smooth="yes"/>
      <point x="625" y="599"/>
      <point x="669" y="585"/>
      <point x="709" y="588" type="curve"/>
      <point x="716" y="616" type="line"/>
      <point x="494" y="616" type="line"/>
      <point x="487" y="591" type="line"/>
      <point x="528" y="588"/>
      <point x="536" y="586"/>
      <point x="532" y="567" type="curve" smooth="yes"/>
      <point x="527" y="550"/>
      <point x="503" y="522"/>
      <point x="455" y="463" type="curve" smooth="yes"/>
      <point x="355" y="340" type="line"/>
    </contour>
  </outline>
</glyph>
<glyph name="Y" format="2">
  <advance width="500"/>
  <unicode hex="0059"/>
  <anchor x="142" y="0" name="bottom"/>
  <anchor x="352" y="616" name="top"/>
  <anchor x="90" y="616" name="topleft"/>
  <outline>
    <contour>
      <point x="30" y="0" type="line"/>
      <point x="326" y="0" type="line"/>
      <point x="333" y="28" type="line"/>
      <point x="264" y="33"/>
      <point x="218" y="30"/>
      <point x="234" y="93" type="curve" smooth="yes"/>
      <point x="294" y="318" type="line"/>
      <point x="274" y="257" type="line"/>
      <point x="478" y="509" type="line" smooth="yes"/>
      <point x="543" y="590"/>
      <point x="581" y="588"/>
      <point x="594" y="588" type="curve"/>
      <point x="601" y="616" type="line"/>
      <point x="403" y="616" type="line"/>
      <point x="396" y="591" type="line"/>
      <point x="465" y="581"/>
      <point x="476" y="565"/>
      <point x="429" y="505" type="curve"/>
      <point x="270" y="306" type="line"/>
      <point x="274" y="307" type="line"/>
      <point x="212" y="525" type="line"/>
      <point x="199" y="586"/>
      <point x="200" y="585"/>
      <point x="270" y="591" type="curve"/>
      <point x="277" y="616" type="line"/>
      <point x="71" y="616" type="line"/>
      <point x="64" y="588" type="line"/>
      <point x="99" y="588"/>
      <point x="125" y="581"/>
      <point x="131" y="556" type="curve" smooth="yes"/>
      <point x="217" y="243" type="line"/>
      <point x="217" y="293" type="line"/>
      <point x="163" y="93" type="line" smooth="yes"/>
      <point x="149" y="38"/>
      <point x="85" y="33"/>
      <point x="37" y="28" type="curve"/>
    </contour>
  </outline>
</glyph>
<glyph name="b" format="2">
  <advance width="398"/>
  <unicode hex="0062"/>
  <anchor x="160" y="0" name="bottom"/>
  <anchor x="171" y="510" name="center"/>
  <anchor x="254" y="402" name="top"/>
  <outline>
    <contour>
      <point x="128" y="-8" type="curve" smooth="yes"/>
      <point x="165" y="-8"/>
      <point x="124" y="26"/>
      <point x="115" y="27" type="curve" smooth="yes"/>
      <point x="87" y="29"/>
      <point x="72" y="45"/>
      <point x="82" y="85" type="curve"/>
      <point x="102" y="151"/>
      <point x="130" y="242"/>
      <point x="150" y="308" type="curve" smooth="yes"/>
      <point x="173" y="385"/>
      <point x="196" y="461"/>
      <point x="219" y="538" type="curve"/>
      <point x="233" y="589"/>
      <point x="246" y="624"/>
      <point x="253" y="648" type="curve"/>
      <point x="211" y="641"/>
      <point x="151" y="636"/>
      <point x="109" y="636" type="curve"/>
      <point x="102" y="611" type="line"/>
      <point x="125" y="609"/>
      <point x="147" y="599"/>
      <point x="155" y="587" type="curve" smooth="yes"/>
      <point x="161" y="579"/>
      <point x="159" y="552"/>
      <point x="150" y="521" type="curve"/>
      <point x="130" y="455"/>
      <point x="110" y="389"/>
      <point x="90" y="323" type="curve" smooth="yes"/>
      <point x="66" y="245"/>
      <point x="37" y="160"/>
      <point x="13" y="82" type="curve"/>
      <point x="3" y="45"/>
      <point x="46" y="-8"/>
    </contour>
    <contour>
      <point x="124" y="355" type="curve"/>
      <point x="124" y="323" type="line"/>
      <point x="163" y="352"/>
      <point x="187" y="373"/>
      <point x="230" y="373" type="curve" smooth="yes"/>
      <point x="286" y="373"/>
      <point x="320" y="309"/>
      <point x="294" y="214" type="curve" smooth="yes"/>
      <point x="264" y="104"/>
      <point x="188" y="27"/>
      <point x="115" y="27" type="curve" smooth="yes"/>
      <point x="98" y="27"/>
      <point x="97" y="-8"/>
      <point x="128" y="-8" type="curve" smooth="yes"/>
      <point x="232" y="-8"/>
      <point x="335" y="93"/>
      <point x="372" y="236" type="curve" smooth="yes"/>
      <point x="399" y="339"/>
      <point x="350" y="412"/>
      <point x="268" y="412" type="curve" smooth="yes"/>
      <point x="210" y="412"/>
      <point x="174" y="388"/>
    </contour>
  </outline>
</glyph>
<glyph name="d" format="2">
  <advance width="410"/>
  <unicode hex="0064"/>
  <anchor x="143" y="0" name="bottom"/>
  <anchor x="388" y="510" name="center"/>
  <anchor x="325" y="10" name="ogonek"/>
  <anchor x="284" y="401" name="top"/>
  <anchor x="506" y="637" name="topright"/>
  <outline>
    <contour>
      <point x="65" y="-10" type="curve" smooth="yes"/>
      <point x="130" y="-10"/>
      <point x="208" y="53"/>
      <point x="286" y="208" type="curve"/>
      <point x="276" y="249" type="line"/>
      <point x="218" y="132"/>
      <point x="142" y="46"/>
      <point x="101" y="46" type="curve" smooth="yes"/>
      <point x="73" y="46"/>
      <point x="68" y="96"/>
      <point x="83" y="155" type="curve" smooth="yes"/>
      <point x="117" y="283"/>
      <point x="189" y="363"/>
      <point x="253" y="363" type="curve" smooth="yes"/>
      <point x="274" y="363"/>
      <point x="295" y="355"/>
      <point x="305" y="333" type="curve"/>
      <point x="332" y="388" type="line"/>
      <point x="316" y="396"/>
      <point x="293" y="402"/>
      <point x="278" y="402" type="curve" smooth="yes"/>
      <point x="169" y="402"/>
      <point x="60" y="286"/>
      <point x="14" y="121" type="curve" smooth="yes"/>
      <point x="-7" y="44"/>
      <point x="14" y="-10"/>
    </contour>
    <contour>
      <point x="256" y="-6" type="curve" smooth="yes"/>
      <point x="289" y="-6"/>
      <point x="350" y="39"/>
      <point x="400" y="106" type="curve"/>
      <point x="381" y="124" type="line"/>
      <point x="347" y="87"/>
      <point x="318" y="56"/>
      <point x="308" y="56" type="curve" smooth="yes"/>
      <point x="297" y="56"/>
      <point x="296" y="95"/>
      <point x="309" y="152" type="curve" smooth="yes"/>
      <point x="313" y="170"/>
      <point x="317" y="195"/>
      <point x="324" y="217" type="curve" smooth="yes"/>
      <point x="350" y="308" type="line"/>
      <point x="419" y="538" type="line" smooth="yes"/>
      <point x="434" y="589"/>
      <point x="447" y="624"/>
      <point x="454" y="648" type="curve"/>
      <point x="406" y="640"/>
      <point x="353" y="636"/>
      <point x="305" y="636" type="curve"/>
      <point x="298" y="611" type="line"/>
      <point x="336" y="608"/>
      <point x="351" y="606"/>
      <point x="358" y="595" type="curve" smooth="yes"/>
      <point x="363" y="589"/>
      <point x="361" y="574"/>
      <point x="347" y="521" type="curve" smooth="yes"/>
      <point x="329" y="455"/>
      <point x="320" y="414"/>
      <point x="299" y="348" type="curve" smooth="yes"/>
      <point x="278" y="281" type="line"/>
      <point x="256" y="201" type="line" smooth="yes"/>
      <point x="222" y="78"/>
      <point x="215" y="-6"/>
    </contour>
  </outline>
</glyph>
<glyph name="e" format="2">
  <advance width="338"/>
  <unicode hex="0065"/>
  <anchor x="124" y="0" name="bottom"/>
  <anchor x="272" y="10" name="ogonek"/>
  <anchor x="218" y="402" name="top"/>
  <outline>
    <contour>
      <point x="114" y="-8" type="curve" smooth="yes"/>
      <point x="179" y="-8"/>
      <point x="245" y="32"/>
      <point x="285" y="95" type="curve"/>
      <point x="268" y="109" type="line"/>
      <point x="233" y="73"/>
      <point x="188" y="39"/>
      <point x="145" y="39" type="curve" smooth="yes"/>
      <point x="90" y="39"/>
      <point x="71" y="117"/>
      <point x="99" y="222" type="curve" smooth="yes"/>
      <point x="121" y="306"/>
      <point x="188" y="379"/>
      <point x="225" y="379" type="curve" smooth="yes"/>
      <point x="250" y="379"/>
      <point x="267" y="343"/>
      <point x="257" y="308" type="curve" smooth="yes"/>
      <point x="241" y="251"/>
      <point x="161" y="194"/>
      <point x="80" y="185" type="curve"/>
      <point x="77" y="157" type="line"/>
      <point x="197" y="169"/>
      <point x="298" y="238"/>
      <point x="321" y="322" type="curve" smooth="yes"/>
      <point x="333" y="375"/>
      <point x="311" y="413"/>
      <point x="253" y="413" type="curve" smooth="yes"/>
      <point x="165" y="413"/>
      <point x="68" y="325"/>
      <point x="35" y="201" type="curve" smooth="yes"/>
      <point x="4" y="85"/>
      <point x="38" y="-8"/>
    </contour>
  </outline>
</glyph>
<glyph name="g" format="2">
  <advance width="391"/>
  <unicode hex="0067"/>
  <anchor x="72" y="-230" name="bottom"/>
  <anchor x="265" y="402" name="top"/>
  <outline>
    <contour>
      <point x="89" y="-203" type="curve" smooth="yes"/>
      <point x="208" y="-203"/>
      <point x="298" y="-145"/>
      <point x="310" y="-81" type="curve" smooth="yes"/>
      <point x="319" y="-32"/>
      <point x="293" y="7"/>
      <point x="206" y="40" type="curve" smooth="yes"/>
      <point x="132" y="68"/>
      <point x="111" y="88"/>
      <point x="106" y="103" type="curve" smooth="yes"/>
      <point x="98" y="126"/>
      <point x="134" y="140"/>
      <point x="169" y="142" type="curve"/>
      <point x="169" y="146" type="line"/>
      <point x="124" y="154" type="line"/>
      <point x="84" y="148"/>
      <point x="56" y="123"/>
      <point x="49" y="101" type="curve" smooth="yes"/>
      <point x="37" y="64"/>
      <point x="60" y="29"/>
      <point x="128" y="2" type="curve" smooth="yes"/>
      <point x="226" y="-37"/>
      <point x="265" y="-64"/>
      <point x="264" y="-86" type="curve" smooth="yes"/>
      <point x="262" y="-128"/>
      <point x="195" y="-167"/>
      <point x="130" y="-167" type="curve" smooth="yes"/>
      <point x="14" y="-167"/>
      <point x="-54" y="-97"/>
      <point x="0" y="-10" type="curve" smooth="yes"/>
      <point x="12" y="9"/>
      <point x="45" y="34"/>
      <point x="111" y="34" type="curve"/>
      <point x="84" y="60" type="line"/>
      <point x="8" y="60"/>
      <point x="-62" y="-2"/>
      <point x="-73" y="-55" type="curve" smooth="yes"/>
      <point x="-93" y="-136"/>
      <point x="-26" y="-203"/>
    </contour>
    <contour>
      <point x="152" y="127" type="curve" smooth="yes"/>
      <point x="229" y="127"/>
      <point x="300" y="184"/>
      <point x="322" y="264" type="curve" smooth="yes"/>
      <point x="347" y="351"/>
      <point x="308" y="414"/>
      <point x="229" y="414" type="curve" smooth="yes"/>
      <point x="155" y="414"/>
      <point x="88" y="359"/>
      <point x="66" y="281" type="curve" smooth="yes"/>
      <point x="42" y="192"/>
      <point x="78" y="127"/>
    </contour>
    <contour>
      <point x="163" y="154" type="curve" smooth="yes"/>
      <point x="131" y="154"/>
      <point x="109" y="208"/>
      <point x="136" y="288" type="curve" smooth="yes"/>
      <point x="154" y="346"/>
      <point x="202" y="386"/>
      <point x="228" y="386" type="curve" smooth="yes"/>
      <point x="259" y="386"/>
      <point x="272" y="332"/>
      <point x="250" y="253" type="curve" smooth="yes"/>
      <point x="234" y="194"/>
      <point x="195" y="154"/>
    </contour>
    <contour>
      <point x="264" y="178" type="line"/>
      <point x="299" y="284"/>
      <point x="348" y="358"/>
      <point x="380" y="358" type="curve" smooth="yes"/>
      <point x="383" y="358"/>
      <point x="387" y="357"/>
      <point x="391" y="356" type="curve" smooth="yes"/>
      <point x="395" y="355"/>
      <point x="399" y="354"/>
      <point x="401" y="354" type="curve" smooth="yes"/>
      <point x="412" y="354"/>
      <point x="427" y="368"/>
      <point x="434" y="386" type="curve" smooth="yes"/>
      <point x="440" y="403"/>
      <point x="429" y="414"/>
      <point x="411" y="414" type="curve" smooth="yes"/>
      <point x="367" y="414"/>
      <point x="300" y="332"/>
      <point x="250" y="220" type="curve"/>
    </contour>
  </outline>
</glyph>
<glyph name="h" format="2">
  <advance width="401"/>
  <unicode hex="0068"/>
  <anchor x="158" y="0" name="bottom"/>
  <anchor x="165" y="510" name="center"/>
  <anchor x="307" y="637" name="top"/>
  <outline>
    <contour>
      <point x="185" y="-14" type="curve" smooth="yes"/>
      <point x="256" y="-14"/>
      <point x="332" y="94"/>
      <point x="369" y="230" type="curve" smooth="yes"/>
      <point x="401" y="345"/>
      <point x="346" y="414"/>
      <point x="284" y="414" type="curve" smooth="yes"/>
      <point x="209" y="414"/>
      <point x="142" y="324"/>
      <point x="83" y="196" type="curve"/>
      <point x="107" y="179" type="line"/>
      <point x="154" y="290"/>
      <point x="195" y="372"/>
      <point x="248" y="372" type="curve" smooth="yes"/>
      <point x="280" y="372"/>
      <point x="321" y="318"/>
      <point x="301" y="225" type="curve" smooth="yes"/>
      <point x="275" y="106"/>
      <point x="227" y="12"/>
      <point x="193" y="12" type="curve" smooth="yes"/>
      <point x="179" y="12"/>
      <point x="194" y="43"/>
      <point x="202" y="75" type="curve"/>
      <point x="207" y="86"/>
      <point x="204" y="94"/>
      <point x="195" y="94" type="curve" smooth="yes"/>
      <point x="171" y="94"/>
      <point x="149" y="80"/>
      <point x="143" y="61" type="curve" smooth="yes"/>
      <point x="129" y="17"/>
      <point x="146" y="-14"/>
    </contour>
    <contour>
      <point x="-19" y="-8" type="curve"/>
      <point x="4" y="-9"/>
      <point x="33" y="-6"/>
      <point x="58" y="0" type="curve"/>
      <point x="78" y="66"/>
      <point x="123" y="242"/>
      <point x="143" y="308" type="curve" smooth="yes"/>
      <point x="166" y="385"/>
      <point x="191" y="461"/>
      <point x="214" y="538" type="curve"/>
      <point x="204" y="501"/>
      <point x="221" y="546"/>
      <point x="251" y="648" type="curve"/>
      <point x="207" y="641"/>
      <point x="147" y="636"/>
      <point x="107" y="636" type="curve"/>
      <point x="100" y="611" type="line"/>
      <point x="124" y="609"/>
      <point x="146" y="599"/>
      <point x="153" y="587" type="curve" smooth="yes"/>
      <point x="160" y="579"/>
      <point x="158" y="552"/>
      <point x="148" y="521" type="curve"/>
      <point x="128" y="455"/>
      <point x="108" y="389"/>
      <point x="88" y="323" type="curve" smooth="yes"/>
      <point x="45" y="182"/>
      <point x="1" y="45"/>
    </contour>
  </outline>
</glyph>
<glyph name="l" format="2">
  <advance width="194"/>
  <unicode hex="006C"/>
  <outline>
    <contour>
      <point x="42" y="-8" type="curve" smooth="yes"/>
      <point x="79" y="-8"/>
      <point x="137" y="34"/>
      <point x="190" y="99" type="curve"/>
      <point x="175" y="113" type="line"/>
      <point x="136" y="73"/>
      <point x="109" y="55"/>
      <point x="100" y="56" type="curve" smooth="yes"/>
      <point x="86" y="57"/>
      <point x="86" y="69"/>
      <point x="94" y="99" type="curve"/>
      <point x="114" y="165"/>
      <point x="136" y="242"/>
      <point x="156" y="308" type="curve" smooth="yes"/>
      <point x="179" y="385"/>
      <point x="202" y="461"/>
      <point x="225" y="538" type="curve"/>
      <point x="239" y="589"/>
      <point x="255" y="624"/>
      <point x="262" y="648" type="curve"/>
      <point x="214" y="640"/>
      <point x="166" y="636"/>
      <point x="118" y="636" type="curve"/>
      <point x="111" y="611" type="line"/>
      <point x="149" y="608"/>
      <point x="157" y="598"/>
      <point x="164" y="587" type="curve" smooth="yes"/>
      <point x="169" y="581"/>
      <point x="169" y="554"/>
      <point x="159" y="521" type="curve"/>
      <point x="139" y="455"/>
      <point x="119" y="389"/>
      <point x="99" y="323" type="curve" smooth="yes"/>
      <point x="75" y="245"/>
      <point x="38" y="134"/>
      <point x="14" y="56" type="curve"/>
      <point x="1" y="6"/>
      <point x="12" y="-8"/>
    </contour>
  </outline>
</glyph>
<glyph name="q" format="2">
  <advance width="419"/>
  <unicode hex="0071"/>
  <anchor x="255" y="-193" name="bottom"/>
  <anchor x="271" y="402" name="top"/>
  <outline>
    <contour>
      <point x="75" y="-10" type="curve" smooth="yes"/>
      <point x="140" y="-10"/>
      <point x="219" y="53"/>
      <point x="297" y="208" type="curve"/>
      <point x="287" y="249" type="line"/>
      <point x="229" y="132"/>
      <point x="157" y="46"/>
      <point x="116" y="46" type="curve" smooth="yes"/>
      <point x="88" y="46"/>
      <point x="73" y="99"/>
      <point x="88" y="158" type="curve" smooth="yes"/>
      <point x="122" y="286"/>
      <point x="199" y="366"/>
      <point x="263" y="366" type="curve" smooth="yes"/>
      <point x="284" y="366"/>
      <point x="305" y="355"/>
      <point x="315" y="333" type="curve"/>
      <point x="342" y="388" type="line"/>
      <point x="326" y="396"/>
      <point x="303" y="402"/>
      <point x="288" y="402" type="curve" smooth="yes"/>
      <point x="179" y="402"/>
      <point x="60" y="286"/>
      <point x="14" y="121" type="curve" smooth="yes"/>
      <point x="-7" y="44"/>
      <point x="24" y="-10"/>
    </contour>
    <contour>
      <point x="54" y="-212" type="line"/>
      <point x="305" y="-212" type="line"/>
      <point x="312" y="-187" type="line"/>
      <point x="273" y="-183"/>
      <point x="247" y="-176"/>
      <point x="238" y="-167" type="curve" smooth="yes"/>
      <point x="229" y="-159"/>
      <point x="227" y="-143"/>
      <point x="234" y="-121" type="curve" smooth="yes"/>
      <point x="409" y="412" type="line"/>
      <point x="384" y="404"/>
      <point x="368" y="399"/>
      <point x="337" y="400" type="curve"/>
      <point x="167" y="-121" type="line" smooth="yes"/>
      <point x="160" y="-142"/>
      <point x="149" y="-160"/>
      <point x="133" y="-171" type="curve" smooth="yes"/>
      <point x="117" y="-178"/>
      <point x="91" y="-184"/>
      <point x="61" y="-187" type="curve"/>
    </contour>
  </outline>
</glyph>
<glyph name="v" format="2">
  <advance width="383"/>
  <unicode hex="0076"/>
  <anchor x="173" y="0" name="bottom"/>
  <anchor x="267" y="402" name="top"/>
  <outline>
    <contour>
      <point x="146" y="-8" type="curve" smooth="yes"/>
      <point x="230" y="-8"/>
      <point x="326" y="90"/>
      <point x="363" y="237" type="curve" smooth="yes"/>
      <point x="390" y="346"/>
      <point x="373" y="423"/>
      <point x="322" y="423" type="curve" smooth="yes"/>
      <point x="296" y="423"/>
      <point x="274" y="396"/>
      <point x="268" y="373" type="curve" smooth="yes"/>
      <point x="261" y="346"/>
      <point x="274" y="329"/>
      <point x="289" y="329" type="curve" smooth="yes"/>
      <point x="331" y="329"/>
      <point x="339" y="281"/>
      <point x="314" y="185" type="curve" smooth="yes"/>
      <point x="296" y="115"/>
      <point x="230" y="58"/>
      <point x="178" y="58" type="curve" smooth="yes"/>
      <point x="125" y="58"/>
      <point x="104" y="105"/>
      <point x="129" y="183" type="curve"/>
      <point x="151" y="247"/>
      <point x="196" y="264"/>
      <point x="215" y="333" type="curve" smooth="yes"/>
      <point x="228" y="380"/>
      <point x="209" y="414"/>
      <point x="168" y="414" type="curve" smooth="yes"/>
      <point x="141" y="414"/>
      <point x="83" y="367"/>
      <point x="27" y="300" type="curve"/>
      <point x="53" y="279" type="line"/>
      <point x="78" y="316"/>
      <point x="115" y="351"/>
      <point x="131" y="351" type="curve" smooth="yes"/>
      <point x="157" y="351"/>
      <point x="157" y="320"/>
      <point x="144" y="276" type="curve" smooth="yes"/>
      <point x="130" y="227"/>
      <point x="75" y="175"/>
      <point x="62" y="118" type="curve" smooth="yes"/>
      <point x="44" y="41"/>
      <point x="79" y="-8"/>
    </contour>
  </outline>
</glyph>
<glyph name="w" format="2">
  <advance width="601"/>
  <unicode hex="0077"/>
  <anchor x="269" y="0" name="bottom"/>
  <anchor x="363" y="402" name="top"/>
  <outline>
    <contour>
      <point x="162" y="-8" type="curve" smooth="yes"/>
      <point x="279" y="-8"/>
      <point x="395" y="124"/>
      <point x="421" y="320" type="curve"/>
      <point x="374" y="266" type="line"/>
      <point x="351" y="137"/>
      <point x="274" y="58"/>
      <point x="195" y="58" type="curve" smooth="yes"/>
      <point x="142" y="58"/>
      <point x="111" y="107"/>
      <point x="136" y="184" type="curve" smooth="yes"/>
      <point x="158" y="248"/>
      <point x="196" y="264"/>
      <point x="215" y="333" type="curve" smooth="yes"/>
      <point x="228" y="380"/>
      <point x="209" y="414"/>
      <point x="168" y="414" type="curve" smooth="yes"/>
      <point x="141" y="414"/>
      <point x="83" y="367"/>
      <point x="27" y="300" type="curve"/>
      <point x="53" y="279" type="line"/>
      <point x="78" y="316"/>
      <point x="115" y="351"/>
      <point x="131" y="351" type="curve" smooth="yes"/>
      <point x="157" y="351"/>
      <point x="157" y="320"/>
      <point x="144" y="276" type="curve" smooth="yes"/>
      <point x="130" y="227"/>
      <point x="91" y="185"/>
      <point x="78" y="128" type="curve" smooth="yes"/>
      <point x="60" y="51"/>
      <point x="101" y="-8"/>
    </contour>
    <contour>
      <point x="356" y="-8" type="curve" smooth="yes"/>
      <point x="459" y="-8"/>
      <point x="529" y="86"/>
      <point x="577" y="227" type="curve" smooth="yes"/>
      <point x="615" y="340"/>
      <point x="594" y="423"/>
      <point x="542" y="423" type="curve" smooth="yes"/>
      <point x="515" y="423"/>
      <point x="491" y="396"/>
      <point x="485" y="373" type="curve" smooth="yes"/>
      <point x="476" y="340"/>
      <point x="491" y="329"/>
      <point x="509" y="329" type="curve" smooth="yes"/>
      <point x="545" y="329"/>
      <point x="563" y="283"/>
      <point x="534" y="209" type="curve" smooth="yes"/>
      <point x="501" y="125"/>
      <point x="451" y="58"/>
      <point x="389" y="58" type="curve" smooth="yes"/>
      <point x="314" y="58"/>
      <point x="270" y="114"/>
      <point x="293" y="233" type="curve" smooth="yes"/>
      <point x="323" y="386"/>
      <point x="390" y="341"/>
      <point x="374" y="266" type="curve"/>
      <point x="421" y="320" type="line"/>
      <point x="438" y="427"/>
      <point x="313" y="461"/>
      <point x="270" y="261" type="curve" smooth="yes"/>
      <point x="236" y="103"/>
      <point x="273" y="-8"/>
    </contour>
  </outline>
</glyph>
<glyph name="y" format="2">
  <advance width="408"/>
  <unicode hex="0079"/>
  <anchor x="63" y="0" name="bottom"/>
  <anchor x="157" y="402" name="top"/>
  <outline>
    <contour>
      <point x="51" y="-228" type="curve" smooth="yes"/>
      <point x="109" y="-228"/>
      <point x="203" y="-84"/>
      <point x="288" y="50" type="curve" smooth="yes"/>
      <point x="343" y="138"/>
      <point x="379" y="232"/>
      <point x="388" y="279" type="curve" smooth="yes"/>
      <point x="412" y="358"/>
      <point x="395" y="414"/>
      <point x="348" y="414" type="curve" smooth="yes"/>
      <point x="317" y="414"/>
      <point x="291" y="394"/>
      <point x="285" y="366" type="curve" smooth="yes"/>
      <point x="278" y="337"/>
      <point x="298" y="325"/>
      <point x="323" y="325" type="curve" smooth="yes"/>
      <point x="380" y="325"/>
      <point x="353" y="219"/>
      <point x="260" y="68" type="curve" smooth="yes"/>
      <point x="189" y="-48"/>
      <point x="86" y="-193"/>
      <point x="56" y="-193" type="curve" smooth="yes"/>
      <point x="36" y="-193"/>
      <point x="32" y="-179"/>
      <point x="40" y="-144" type="curve" smooth="yes"/>
      <point x="46" y="-126"/>
      <point x="41" y="-105"/>
      <point x="29" y="-105" type="curve" smooth="yes"/>
      <point x="-7" y="-105"/>
      <point x="-27" y="-116"/>
      <point x="-33" y="-145" type="curve" smooth="yes"/>
      <point x="-45" y="-194"/>
      <point x="-12" y="-228"/>
    </contour>
    <contour>
      <point x="156" y="-8" type="curve" smooth="yes"/>
      <point x="240" y="-8"/>
      <point x="336" y="90"/>
      <point x="373" y="237" type="curve"/>
      <point x="324" y="185" type="line"/>
      <point x="306" y="115"/>
      <point x="240" y="58"/>
      <point x="188" y="58" type="curve" smooth="yes"/>
      <point x="135" y="58"/>
      <point x="114" y="105"/>
      <point x="139" y="183" type="curve"/>
      <point x="161" y="247"/>
      <point x="186" y="264"/>
      <point x="205" y="333" type="curve" smooth="yes"/>
      <point x="218" y="380"/>
      <point x="199" y="414"/>
      <point x="158" y="414" type="curve" smooth="yes"/>
      <point x="131" y="414"/>
      <point x="73" y="367"/>
      <point x="17" y="300" type="curve"/>
      <point x="43" y="279" type="line"/>
      <point x="68" y="316"/>
      <point x="105" y="351"/>
      <point x="121" y="351" type="curve" smooth="yes"/>
      <point x="147" y="351"/>
      <point x="147" y="320"/>
      <point x="134" y="276" type="curve" smooth="yes"/>
      <point x="120" y="227"/>
      <point x="85" y="175"/>
      <point x="72" y="118" type="curve" smooth="yes"/>
      <point x="54" y="41"/>
      <point x="89" y="-8"/>
    </contour>
  </outline>
</glyph>
<glyph name="z" format="2">
  <advance width="374"/>
  <unicode hex="007A"/>
  <anchor x="138" y="0" name="bottom"/>
  <anchor x="185" y="201" name="center"/>
  <anchor x="232" y="402" name="top"/>
  <outline>
    <contour>
      <point x="1" y="10" type="line"/>
      <point x="377" y="383" type="line"/>
      <point x="353" y="396" type="line"/>
      <point x="-25" y="23" type="line"/>
    </contour>
    <contour>
      <point x="7" y="0" type="line"/>
      <point x="23" y="18"/>
      <point x="49" y="28"/>
      <point x="67" y="28" type="curve" smooth="yes"/>
      <point x="81" y="28"/>
      <point x="95" y="23"/>
      <point x="113" y="16" type="curve" smooth="yes"/>
      <point x="144" y="3"/>
      <point x="173" y="-7"/>
      <point x="194" y="-8" type="curve" smooth="yes"/>
      <point x="231" y="-11"/>
      <point x="273" y="17"/>
      <point x="299" y="58" type="curve" smooth="yes"/>
      <point x="339" y="128" type="line"/>
      <point x="318" y="138" type="line"/>
      <point x="287" y="94" type="line" smooth="yes"/>
      <point x="272" y="71"/>
      <point x="241" y="45"/>
      <point x="213" y="47" type="curve" smooth="yes"/>
      <point x="202" y="48"/>
      <point x="185" y="56"/>
      <point x="168" y="63" type="curve" smooth="yes"/>
      <point x="148" y="72"/>
      <point x="126" y="81"/>
      <point x="109" y="83" type="curve" smooth="yes"/>
      <point x="61" y="86"/>
      <point x="5" y="61"/>
      <point x="-25" y="23" type="curve"/>
    </contour>
    <contour>
      <point x="59" y="267" type="line"/>
      <point x="88" y="311" type="line" smooth="yes"/>
      <point x="101" y="334"/>
      <point x="129" y="359"/>
      <point x="153" y="357" type="curve" smooth="yes"/>
      <point x="163" y="357"/>
      <point x="180" y="349"/>
      <point x="196" y="342" type="curve" smooth="yes"/>
      <point x="215" y="334"/>
      <point x="236" y="324"/>
      <point x="251" y="323" type="curve" smooth="yes"/>
      <point x="296" y="319"/>
      <point x="340" y="339"/>
      <point x="377" y="383" type="curve"/>
      <point x="348" y="406" type="line"/>
      <point x="334" y="388"/>
      <point x="303" y="377"/>
      <point x="278" y="379" type="curve" smooth="yes"/>
      <point x="273" y="379"/>
      <point x="262" y="384"/>
      <point x="248" y="390" type="curve" smooth="yes"/>
      <point x="228" y="400"/>
      <point x="201" y="412"/>
      <point x="180" y="414" type="curve" smooth="yes"/>
      <point x="137" y="417"/>
      <point x="97" y="389"/>
      <point x="73" y="348" type="curve" smooth="yes"/>
      <point x="35" y="277" type="line"/>
    </contour>
  </outline>
</glyph>
<glyph name="braceright" format="2">
  <advance width="371"/>
  <unicode hex="007D"/>
  <outline>
    <contour>
      <point x="-57" y="-144" type="line"/>
      <point x="34" y="-144"/>
      <point x="113" y="-91"/>
      <point x="134" y="-16" type="curve" smooth="yes"/>
      <point x="187" y="173" type="line" smooth="yes"/>
      <point x="203" y="229"/>
      <point x="255" y="269"/>
      <point x="329" y="269" type="curve"/>
      <point x="335" y="289" type="line"/>
      <point x="261" y="289"/>
      <point x="231" y="329"/>
      <point x="247" y="385" type="curve" smooth="yes"/>
      <point x="300" y="574" type="line" smooth="yes"/>
      <point x="321" y="649"/>
      <point x="272" y="702"/>
      <point x="181" y="702" type="curve"/>
      <point x="171" y="666" type="line"/>
      <point x="227" y="666"/>
      <point x="256" y="628"/>
      <point x="241" y="574" type="curve" smooth="yes"/>
      <point x="192" y="401" type="line" smooth="yes"/>
      <point x="180" y="357"/>
      <point x="201" y="306"/>
      <point x="242" y="279" type="curve"/>
      <point x="185" y="252"/>
      <point x="136" y="201"/>
      <point x="124" y="157" type="curve" smooth="yes"/>
      <point x="75" y="-16" type="line" smooth="yes"/>
      <point x="60" y="-70"/>
      <point x="9" y="-108"/>
      <point x="-47" y="-108" type="curve"/>
    </contour>
  </outline>
</glyph>
<glyph name="gravecomb" format="2">
  <unicode hex="0300"/>
  <anchor x="110" y="384" name="_top"/>
  <anchor x="178" y="628" name="top"/>
  <outline>
    <contour>
      <point x="212" y="473" type="line"/>
      <point x="168" y="624" type="line"/>
      <point x="165" y="632"/>
      <point x="149" y="629"/>
      <point x="126" y="617" type="curve" smooth="yes"/>
      <point x="107" y="604"/>
      <point x="87" y="591"/>
      <point x="91" y="584" type="curve"/>
      <point x="194" y="462" type="line"/>
    </contour>
  </outline>
</glyph>
<glyph name="acutecomb" format="2">
  <unicode hex="0301"/>
  <anchor x="98" y="384" name="_top"/>
  <anchor x="166" y="628" name="top"/>
  <outline>
    <contour>
      <point x="46" y="473" type="line"/>
      <point x="58" y="462" type="line"/>
      <point x="229" y="584" type="line"/>
      <point x="237" y="591"/>
      <point x="225" y="604"/>
      <point x="212" y="617" type="curve" smooth="yes"/>
      <point x="197" y="629"/>
      <point x="181" y="632"/>
      <point x="174" y="624" type="curve"/>
    </contour>
  </outline>
</glyph>
<glyph name="circumflexcomb" format="2">
  <unicode hex="0302"/>
  <anchor x="108" y="384" name="_top"/>
  <anchor x="175" y="621" name="top"/>
  <outline>
    <contour>
      <point x="233" y="450" type="line"/>
      <point x="250" y="462" type="line"/>
      <point x="202" y="609" type="line" smooth="yes"/>
      <point x="196" y="625"/>
      <point x="156" y="625"/>
      <point x="142" y="609" type="curve" smooth="yes"/>
      <point x="10" y="462" type="line"/>
      <point x="21" y="450" type="line"/>
      <point x="157" y="556" type="line"/>
    </contour>
  </outline>
</glyph>
<glyph name="tildecomb" format="2">
  <unicode hex="0303"/>
  <anchor x="113" y="384" name="_top"/>
  <anchor x="182" y="627" name="top"/>
  <outline>
    <contour>
      <point x="321" y="617" type="line"/>
      <point x="272" y="562"/>
      <point x="250" y="509"/>
      <point x="180" y="509" type="curve"/>
      <point x="119" y="509" type="line"/>
      <point x="75" y="509"/>
      <point x="69" y="498"/>
      <point x="7" y="452" type="curve"/>
      <point x="-7" y="463" type="line"/>
      <point x="43" y="517"/>
      <point x="64" y="571"/>
      <point x="134" y="571" type="curve"/>
      <point x="195" y="571" type="line"/>
      <point x="239" y="571"/>
      <point x="245" y="582"/>
      <point x="307" y="627" type="curve"/>
    </contour>
  </outline>
</glyph>
<glyph name="brevecomb" format="2">
  <unicode hex="0306"/>
  <anchor x="183" y="384" name="_top"/>
  <anchor x="183" y="612" name="top"/>
  <outline>
    <contour>
      <point x="182" y="486" type="curve" smooth="yes"/>
      <point x="251" y="486"/>
      <point x="295" y="536"/>
      <point x="295" y="612" type="curve"/>
      <point x="262" y="612" type="line"/>
      <point x="262" y="566"/>
      <point x="231" y="539"/>
      <point x="182" y="539" type="curve" smooth="yes"/>
      <point x="133" y="539"/>
      <point x="103" y="566"/>
      <point x="103" y="612" type="curve"/>
      <point x="70" y="612" type="line"/>
      <point x="70" y="536"/>
      <point x="113" y="486"/>
    </contour>
  </outline>
</glyph>
<glyph name="dotaccentcomb" format="2">
  <unicode hex="0307"/>
  <anchor x="125" y="384" name="_top"/>
  <anchor x="190" y="615" name="top"/>
  <outline>
    <contour>
      <point x="167" y="534" type="curve" smooth="yes"/>
      <point x="193" y="534"/>
      <point x="221" y="555"/>
      <point x="228" y="580" type="curve" smooth="yes"/>
      <point x="235" y="606"/>
      <point x="219" y="628"/>
      <point x="193" y="628" type="curve" smooth="yes"/>
      <point x="168" y="628"/>
      <point x="141" y="606"/>
      <point x="134" y="580" type="curve" smooth="yes"/>
      <point x="127" y="555"/>
      <point x="142" y="534"/>
    </contour>
  </outline>
</glyph>
<glyph name="ringcomb" format="2">
  <unicode hex="030A"/>
  <anchor x="95" y="384" name="_top"/>
  <anchor x="169" y="646" name="top"/>
  <outline>
    <contour>
      <point x="119" y="469" type="curve" smooth="yes"/>
      <point x="171" y="469"/>
      <point x="218" y="506"/>
      <point x="232" y="558" type="curve" smooth="yes"/>
      <point x="247" y="610"/>
      <point x="221" y="646"/>
      <point x="169" y="646" type="curve" smooth="yes"/>
      <point x="117" y="646"/>
      <point x="71" y="610"/>
      <point x="56" y="558" type="curve" smooth="yes"/>
      <point x="42" y="506"/>
      <point x="67" y="469"/>
    </contour>
    <contour>
      <point x="129" y="505" type="curve" smooth="yes"/>
      <point x="99" y="505"/>
      <point x="83" y="527"/>
      <point x="92" y="558" type="curve" smooth="yes"/>
      <point x="101" y="588"/>
      <point x="129" y="610"/>
      <point x="159" y="610" type="curve" smooth="yes"/>
      <point x="189" y="610"/>
      <point x="205" y="588"/>
      <point x="196" y="558" type="curve" smooth="yes"/>
      <point x="187" y="527"/>
      <point x="159" y="505"/>
    </contour>
  </outline>
</glyph>
<glyph name="cedillacomb" format="2">
  <unicode hex="0327"/>
  <anchor x="227" y="0" name="_bottom"/>
  <anchor x="162" y="-231" name="bottom"/>
  <outline>
    <contour>
      <point x="193" y="2" type="line"/>
      <point x="173" y="-28"/>
      <point x="149" y="-69"/>
      <point x="132" y="-97" type="curve"/>
      <point x="129" y="-101"/>
      <point x="132" y="-104"/>
      <point x="141" y="-104" type="curve" smooth="yes"/>
      <point x="199" y="-104"/>
      <point x="236" y="-122"/>
      <point x="228" y="-149" type="curve" smooth="yes"/>
      <point x="215" y="-197"/>
      <point x="154" y="-212"/>
      <point x="86" y="-188" type="curve" smooth="yes"/>
      <point x="80" y="-186"/>
      <point x="71" y="-195"/>
      <point x="66" y="-213" type="curve" smooth="yes"/>
      <point x="65" y="-217"/>
      <point x="69" y="-221"/>
      <point x="79" y="-223" type="curve" smooth="yes"/>
      <point x="183" y="-247"/>
      <point x="267" y="-214"/>
      <point x="286" y="-145" type="curve" smooth="yes"/>
      <point x="300" y="-97"/>
      <point x="267" y="-62"/>
      <point x="204" y="-64" type="curve"/>
      <point x="249" y="3" type="line"/>
    </contour>
  </outline>
</glyph>
<glyph name="commaturnedabovecomb.case" format="2">
  <anchor x="190" y="616" name="_top"/>
  <anchor x="190" y="830" name="top"/>
  <outline>
    <contour>
      <point x="235" y="811" type="curve"/>
      <point x="228" y="830" type="line"/>
      <point x="174" y="809"/>
      <point x="139" y="757"/>
      <point x="139" y="707" type="curve" smooth="yes"/>
      <point x="139" y="674"/>
      <point x="162" y="648"/>
      <point x="197" y="648" type="curve" smooth="yes"/>
      <point x="223" y="648"/>
      <point x="241" y="665"/>
      <point x="241" y="686" type="curve" smooth="yes"/>
      <point x="241" y="701"/>
      <point x="231" y="716"/>
      <point x="217" y="716" type="curve" smooth="yes"/>
      <point x="204" y="716"/>
      <point x="202" y="711"/>
      <point x="191" y="711" type="curve" smooth="yes"/>
      <point x="181" y="711"/>
      <point x="176" y="723"/>
      <point x="176" y="739" type="curve" smooth="yes"/>
      <point x="176" y="774"/>
      <point x="201" y="802"/>
    </contour>
  </outline>
</glyph>
<glyph name="dotaccentcomb.case" format="2">
  <anchor x="180" y="616" name="_top"/>
  <anchor x="180" y="774" name="top"/>
  <outline>
    <contour>
      <point x="179" y="668" type="curve" smooth="yes"/>
      <point x="207" y="668"/>
      <point x="235" y="693"/>
      <point x="235" y="720" type="curve" smooth="yes"/>
      <point x="235" y="748"/>
      <point x="207" y="774"/>
      <point x="179" y="774" type="curve" smooth="yes"/>
      <point x="152" y="774"/>
      <point x="125" y="748"/>
      <point x="125" y="720" type="curve" smooth="yes"/>
      <point x="125" y="693"/>
      <point x="152" y="668"/>
    </contour>
  </outline>
</glyph>
<glyph name="macroncomb.sc" format="2">
  <anchor x="182" y="384" name="_top"/>
  <anchor x="182" y="616" name="top"/>
  <outline>
    <contour>
      <point x="55" y="538" type="line"/>
      <point x="55" y="493" type="line"/>
      <point x="305" y="493" type="line"/>
      <point x="305" y="538" type="line"/>
    </contour>
  </outline>
</glyph>
